<svg width="16" height="17" viewBox="0 0 16 17" fill="none" xmlns="http://www.w3.org/2000/svg">
<path d="M1 3.27273H5.2M5.2 3.27273V2C5.2 1.44772 5.64772 1 6.2 1H9.8C10.3523 1 10.8 1.44772 10.8 2V3.27273M5.2 3.27273H10.8M15 3.27273H10.8M2.4 5.09091V12.3636C2.4 14.0778 2.4 14.9349 2.94673 15.4675C3.49347 16 4.37342 16 6.1333 16H9.8667C11.6266 16 12.5065 16 13.0533 15.4675C13.6 14.9349 13.6 14.0778 13.6 12.3636V5.09091M5.2 6.9091V12.3636M8 6.9091V12.3636M10.8 6.9091V12.3636" stroke="#FF0000" stroke-linecap="round" stroke-linejoin="round"/>
</svg>
